<svg width="400" height="60" viewBox="0 0 3046 652" fill="none" xmlns="http://www.w3.org/2000/svg">
<path d="M949.954 281.347H896.609V426H853.763V281.347H801.395V248.266H949.954V281.347ZM1103.37 350.683H1035.99V393.041H1115.58V426H993.143V248.266H1115.82V281.347H1035.99V318.822H1103.37V350.683ZM1249.71 378.759C1249.71 372.493 1247.47 367.61 1243 364.11C1238.6 360.611 1230.83 356.99 1219.68 353.246C1208.53 349.503 1199.42 345.881 1192.34 342.382C1169.31 331.07 1157.79 315.526 1157.79 295.751C1157.79 285.904 1160.64 277.237 1166.34 269.75C1172.11 262.182 1180.25 256.322 1190.75 252.172C1201.25 247.94 1213.05 245.824 1226.15 245.824C1238.93 245.824 1250.36 248.103 1260.45 252.66C1270.62 257.217 1278.52 263.728 1284.13 272.191C1289.75 280.574 1292.56 290.176 1292.56 301H1249.83C1249.83 293.757 1247.59 288.142 1243.12 284.154C1238.72 280.167 1232.74 278.173 1225.17 278.173C1217.52 278.173 1211.46 279.882 1206.99 283.3C1202.59 286.636 1200.39 290.909 1200.39 296.117C1200.39 300.674 1202.84 304.825 1207.72 308.568C1212.6 312.23 1221.19 316.055 1233.47 320.043C1245.76 323.949 1255.85 328.181 1263.75 332.738C1282.95 343.806 1292.56 359.065 1292.56 378.515C1292.56 394.058 1286.7 406.265 1274.98 415.136C1263.26 424.006 1247.19 428.441 1226.76 428.441C1212.36 428.441 1199.3 425.878 1187.58 420.751C1175.94 415.543 1167.15 408.463 1161.21 399.511C1155.35 390.478 1152.42 380.102 1152.42 368.383H1195.39C1195.39 377.904 1197.83 384.944 1202.71 389.501C1207.68 393.977 1215.69 396.215 1226.76 396.215C1233.84 396.215 1239.42 394.709 1243.48 391.698C1247.63 388.606 1249.71 384.293 1249.71 378.759ZM1479.06 281.347H1425.71V426H1382.86V281.347H1330.5V248.266H1479.06V281.347ZM1567.9 426H1525.17V248.266H1567.9V426ZM1771.12 426H1728.52L1665.53 315.404V426H1622.68V248.266H1665.53L1728.4 358.861V248.266H1771.12V426ZM1968.73 404.027C1962.14 411.352 1952.49 417.252 1939.8 421.728C1927.1 426.203 1913.19 428.441 1898.05 428.441C1874.78 428.441 1856.18 421.321 1842.26 407.079C1828.35 392.838 1820.9 373.021 1819.92 347.631L1819.8 332.25C1819.8 314.753 1822.9 299.494 1829.08 286.474C1835.27 273.371 1844.09 263.321 1855.57 256.322C1867.13 249.242 1880.47 245.702 1895.61 245.702C1917.74 245.702 1934.92 250.788 1947.12 260.961C1959.41 271.052 1966.57 286.148 1968.61 306.249H1927.35C1925.88 296.321 1922.71 289.241 1917.83 285.009C1912.94 280.777 1906.03 278.661 1897.07 278.661C1886.33 278.661 1878.03 283.218 1872.17 292.333C1866.31 301.448 1863.34 314.468 1863.26 331.396V342.138C1863.26 359.879 1866.27 373.225 1872.29 382.177C1878.4 391.047 1887.96 395.482 1900.98 395.482C1912.13 395.482 1920.43 393 1925.88 388.036V360.448H1896.1V331.029H1968.73V404.027ZM2238.09 281.347H2184.74V426H2141.9V281.347H2089.53V248.266H2238.09V281.347ZM2367.58 392.797H2308.87L2298.61 426H2252.84L2318.02 248.266H2358.3L2423.98 426H2377.96L2367.58 392.797ZM2319.12 359.716H2357.33L2338.16 298.07L2319.12 359.716ZM2504.89 393.041H2579.47V426H2462.04V248.266H2504.89V393.041ZM2682.96 359.838L2665.38 379.125V426H2622.54V248.266H2665.38V326.635L2680.28 304.052L2718.61 248.266H2771.59L2711.53 326.879L2771.59 426H2720.8L2682.96 359.838ZM2899.12 378.759C2899.12 372.493 2896.89 367.61 2892.41 364.11C2888.02 360.611 2880.24 356.99 2869.09 353.246C2857.95 349.503 2848.83 345.881 2841.75 342.382C2818.72 331.07 2807.21 315.526 2807.21 295.751C2807.21 285.904 2810.05 277.237 2815.75 269.75C2821.53 262.182 2829.67 256.322 2840.16 252.172C2850.66 247.94 2862.46 245.824 2875.56 245.824C2888.34 245.824 2899.78 248.103 2909.87 252.66C2920.04 257.217 2927.93 263.728 2933.55 272.191C2939.16 280.574 2941.97 290.176 2941.97 301H2899.25C2899.25 293.757 2897.01 288.142 2892.53 284.154C2888.14 280.167 2882.16 278.173 2874.59 278.173C2866.94 278.173 2860.88 279.882 2856.4 283.3C2852.01 286.636 2849.81 290.909 2849.81 296.117C2849.81 300.674 2852.25 304.825 2857.13 308.568C2862.01 312.23 2870.6 316.055 2882.89 320.043C2895.18 323.949 2905.27 328.181 2913.16 332.738C2932.37 343.806 2941.97 359.065 2941.97 378.515C2941.97 394.058 2936.11 406.265 2924.39 415.136C2912.67 424.006 2896.6 428.441 2876.17 428.441C2861.77 428.441 2848.71 425.878 2836.99 420.751C2825.35 415.543 2816.56 408.463 2810.62 399.511C2804.76 390.478 2801.83 380.102 2801.83 368.383H2844.8C2844.8 377.904 2847.24 384.944 2852.13 389.501C2857.09 393.977 2865.11 396.215 2876.17 396.215C2883.26 396.215 2888.83 394.709 2892.9 391.698C2897.05 388.606 2899.12 384.293 2899.12 378.759Z" fill="white"/>
<path fill-rule="evenodd" clip-rule="evenodd" d="M721 551V101H746V551H721Z" fill="white"/>
<path fill-rule="evenodd" clip-rule="evenodd" d="M172 104H666V422.111H586.367V508L520.55 422.111H172V104ZM621.262 377.283V148.828H216.737V377.283H621.262Z" fill="white"/>
<path fill-rule="evenodd" clip-rule="evenodd" d="M138.749 274.831H205.173V236H100V490.339H162.792V551L223.324 490.339H493V382.508H454.251V451.508H138.749V274.831Z" fill="white"/>
<path fill-rule="evenodd" clip-rule="evenodd" d="M527 206.475L387.629 347L311 270.767L340.036 241.095L387.433 288.247L497.767 177L527 206.475Z" fill="#6FCF97"/>
</svg>
